<?xml version="1.0" encoding="us-ascii" standalone="no"?><svg xmlns="http://www.w3.org/2000/svg" xmlns:xlink="http://www.w3.org/1999/xlink" contentStyleType="text/css" height="1405.2083px" preserveAspectRatio="none" style="width:1587px;height:1405px;" version="1.1" viewBox="0 0 1587 1405" width="1587.5px" zoomAndPan="magnify"><defs><linearGradient id="gu5k54t0y4a420" x1="50%" x2="50%" y1="0%" y2="100%"><stop offset="0%" stop-color="#4DABF5"/><stop offset="100%" stop-color="#2196F3"/></linearGradient><filter height="300%" id="fu5k54t0y4a42" width="300%" x="-1" y="-1"><feGaussianBlur result="blurOut" stdDeviation="2.0833333333333335"/><feColorMatrix in="blurOut" result="blurOut2" type="matrix" values="0 0 0 0 0 0 0 0 0 0 0 0 0 0 0 0 0 0 .4 0"/><feOffset dx="4.166666666666667" dy="4.166666666666667" in="blurOut2" result="blurOut3"/><feBlend in="SourceGraphic" in2="blurOut3" mode="normal"/></filter><linearGradient id="gu5k54t0y4a421" x1="50%" x2="50%" y1="0%" y2="100%"><stop offset="0%" stop-color="#FFFFFF"/><stop offset="100%" stop-color="#FFFFFF"/></linearGradient></defs><g><line style="stroke:#CCCCCC;stroke-width:1.0416666666666667;stroke-dasharray:5.0,5.0;" x1="54.1667" x2="54.1667" y1="113.1083" y2="639.1581"/><line style="stroke:#CCCCCC;stroke-width:1.0416666666666667;stroke-dasharray:1.0,4.0;" x1="54.1667" x2="54.1667" y1="639.1581" y2="704.3498"/><line style="stroke:#CCCCCC;stroke-width:1.0416666666666667;stroke-dasharray:5.0,5.0;" x1="54.1667" x2="54.1667" y1="704.3498" y2="1296.8079"/><line style="stroke:#CCCCCC;stroke-width:1.0416666666666667;stroke-dasharray:5.0,5.0;" x1="415.1042" x2="415.1042" y1="113.1083" y2="639.1581"/><line style="stroke:#CCCCCC;stroke-width:1.0416666666666667;stroke-dasharray:1.0,4.0;" x1="415.1042" x2="415.1042" y1="639.1581" y2="704.3498"/><line style="stroke:#CCCCCC;stroke-width:1.0416666666666667;stroke-dasharray:5.0,5.0;" x1="415.1042" x2="415.1042" y1="704.3498" y2="1296.8079"/><line style="stroke:#CCCCCC;stroke-width:1.0416666666666667;stroke-dasharray:5.0,5.0;" x1="811.9792" x2="811.9792" y1="113.1083" y2="639.1581"/><line style="stroke:#CCCCCC;stroke-width:1.0416666666666667;stroke-dasharray:1.0,4.0;" x1="811.9792" x2="811.9792" y1="639.1581" y2="704.3498"/><line style="stroke:#CCCCCC;stroke-width:1.0416666666666667;stroke-dasharray:5.0,5.0;" x1="811.9792" x2="811.9792" y1="704.3498" y2="1296.8079"/><line style="stroke:#CCCCCC;stroke-width:1.0416666666666667;stroke-dasharray:5.0,5.0;" x1="1144.7917" x2="1144.7917" y1="113.1083" y2="639.1581"/><line style="stroke:#CCCCCC;stroke-width:1.0416666666666667;stroke-dasharray:1.0,4.0;" x1="1144.7917" x2="1144.7917" y1="639.1581" y2="704.3498"/><line style="stroke:#CCCCCC;stroke-width:1.0416666666666667;stroke-dasharray:5.0,5.0;" x1="1144.7917" x2="1144.7917" y1="704.3498" y2="1296.8079"/><line style="stroke:#CCCCCC;stroke-width:1.0416666666666667;stroke-dasharray:5.0,5.0;" x1="1479.1667" x2="1479.1667" y1="113.1083" y2="639.1581"/><line style="stroke:#CCCCCC;stroke-width:1.0416666666666667;stroke-dasharray:1.0,4.0;" x1="1479.1667" x2="1479.1667" y1="639.1581" y2="704.3498"/><line style="stroke:#CCCCCC;stroke-width:1.0416666666666667;stroke-dasharray:5.0,5.0;" x1="1479.1667" x2="1479.1667" y1="704.3498" y2="1296.8079"/><text fill="#222222" font-family="Verdana" font-size="12.5" lengthAdjust="spacing" textLength="50" x="26.0417" y="100.0671">Usuario</text><ellipse cx="54.1667" cy="19.7917" fill="url(#gu5k54t0y4a420)" filter="url(#fu5k54t0y4a42)" rx="8.3333" ry="8.3333" style="stroke:#2196F3;stroke-width:1.0416666666666667;"/><path d="M54.1667,28.125 L54.1667,56.25 M40.625,36.4583 L67.7083,36.4583 M54.1667,56.25 L40.625,71.875 M54.1667,56.25 L67.7083,71.875 " fill="none" filter="url(#fu5k54t0y4a42)" style="stroke:#2196F3;stroke-width:1.0416666666666667;"/><text fill="#222222" font-family="Verdana" font-size="12.5" lengthAdjust="spacing" textLength="50" x="26.0417" y="1318.75">Usuario</text><ellipse cx="54.1667" cy="1341.1662" fill="url(#gu5k54t0y4a420)" filter="url(#fu5k54t0y4a42)" rx="8.3333" ry="8.3333" style="stroke:#2196F3;stroke-width:1.0416666666666667;"/><path d="M54.1667,1349.4995 L54.1667,1377.6245 M40.625,1357.8328 L67.7083,1357.8328 M54.1667,1377.6245 L40.625,1393.2495 M54.1667,1377.6245 L67.7083,1393.2495 " fill="none" filter="url(#fu5k54t0y4a42)" style="stroke:#2196F3;stroke-width:1.0416666666666667;"/><rect fill="url(#gu5k54t0y4a420)" filter="url(#fu5k54t0y4a42)" height="50.6083" rx="4.1667" ry="4.1667" style="stroke:#2196F3;stroke-width:1.0416666666666667;" width="141.6667" x="343.2292" y="58.3333"/><text fill="#FFFFFF" font-family="Verdana" font-size="12.5" lengthAdjust="spacing" textLength="106.25" x="360.9375" y="88.6088">Navegador Web</text><rect fill="url(#gu5k54t0y4a420)" filter="url(#fu5k54t0y4a42)" height="50.6083" rx="4.1667" ry="4.1667" style="stroke:#2196F3;stroke-width:1.0416666666666667;" width="141.6667" x="343.2292" y="1295.7662"/><text fill="#FFFFFF" font-family="Verdana" font-size="12.5" lengthAdjust="spacing" textLength="106.25" x="360.9375" y="1326.0417">Navegador Web</text><rect fill="url(#gu5k54t0y4a420)" filter="url(#fu5k54t0y4a42)" height="50.6083" rx="4.1667" ry="4.1667" style="stroke:#2196F3;stroke-width:1.0416666666666667;" width="172.9167" x="724.4792" y="58.3333"/><text fill="#FFFFFF" font-family="Verdana" font-size="12.5" lengthAdjust="spacing" textLength="137.5" x="742.1875" y="88.6088">Controlador (app.py)</text><rect fill="url(#gu5k54t0y4a420)" filter="url(#fu5k54t0y4a42)" height="50.6083" rx="4.1667" ry="4.1667" style="stroke:#2196F3;stroke-width:1.0416666666666667;" width="172.9167" x="724.4792" y="1295.7662"/><text fill="#FFFFFF" font-family="Verdana" font-size="12.5" lengthAdjust="spacing" textLength="137.5" x="742.1875" y="1326.0417">Controlador (app.py)</text><rect fill="url(#gu5k54t0y4a420)" filter="url(#fu5k54t0y4a42)" height="50.6083" rx="4.1667" ry="4.1667" style="stroke:#2196F3;stroke-width:1.0416666666666667;" width="176.0417" x="1055.2083" y="58.3333"/><text fill="#FFFFFF" font-family="Verdana" font-size="12.5" lengthAdjust="spacing" textLength="140.625" x="1072.9167" y="88.6088">Modelo (SQLAlchemy)</text><rect fill="url(#gu5k54t0y4a420)" filter="url(#fu5k54t0y4a42)" height="50.6083" rx="4.1667" ry="4.1667" style="stroke:#2196F3;stroke-width:1.0416666666666667;" width="176.0417" x="1055.2083" y="1295.7662"/><text fill="#FFFFFF" font-family="Verdana" font-size="12.5" lengthAdjust="spacing" textLength="140.625" x="1072.9167" y="1326.0417">Modelo (SQLAlchemy)</text><text fill="#222222" font-family="Verdana" font-size="12.5" lengthAdjust="spacing" textLength="154.1667" x="1398.9583" y="100.0671">Base de Datos (MySQL)</text><path d="M1460.4167,39.5833 C1460.4167,29.1667 1479.1667,29.1667 1479.1667,29.1667 C1479.1667,29.1667 1497.9167,29.1667 1497.9167,39.5833 L1497.9167,66.6667 C1497.9167,77.0833 1479.1667,77.0833 1479.1667,77.0833 C1479.1667,77.0833 1460.4167,77.0833 1460.4167,66.6667 L1460.4167,39.5833 " fill="url(#gu5k54t0y4a420)" filter="url(#fu5k54t0y4a42)" style="stroke:#2196F3;stroke-width:1.5625;"/><path d="M1460.4167,39.5833 C1460.4167,50 1479.1667,50 1479.1667,50 C1479.1667,50 1497.9167,50 1497.9167,39.5833 " fill="none" style="stroke:#2196F3;stroke-width:1.5625;"/><text fill="#222222" font-family="Verdana" font-size="12.5" lengthAdjust="spacing" textLength="154.1667" x="1398.9583" y="1318.75">Base de Datos (MySQL)</text><path d="M1460.4167,1342.2078 C1460.4167,1331.7912 1479.1667,1331.7912 1479.1667,1331.7912 C1479.1667,1331.7912 1497.9167,1331.7912 1497.9167,1342.2078 L1497.9167,1369.2912 C1497.9167,1379.7078 1479.1667,1379.7078 1479.1667,1379.7078 C1479.1667,1379.7078 1460.4167,1379.7078 1460.4167,1369.2912 L1460.4167,1342.2078 " fill="url(#gu5k54t0y4a420)" filter="url(#fu5k54t0y4a42)" style="stroke:#2196F3;stroke-width:1.5625;"/><path d="M1460.4167,1342.2078 C1460.4167,1352.6245 1479.1667,1352.6245 1479.1667,1352.6245 C1479.1667,1352.6245 1497.9167,1352.6245 1497.9167,1342.2078 " fill="none" style="stroke:#2196F3;stroke-width:1.5625;"/><rect fill="url(#gu5k54t0y4a421)" filter="url(#fu5k54t0y4a42)" height="3.125" rx="4.1667" ry="4.1667" style="stroke:url(#gu5k54t0y4a421);stroke-width:1.0416666666666667;" width="1564.5833" x="10.4167" y="155.0791"/><line style="stroke:#666666;stroke-width:1.0416666666666667;" x1="10.4167" x2="1575" y1="155.0791" y2="155.0791"/><line style="stroke:#666666;stroke-width:1.0416666666666667;" x1="10.4167" x2="1575" y1="158.2041" y2="158.2041"/><rect fill="url(#gu5k54t0y4a421)" filter="url(#fu5k54t0y4a42)" height="44.3583" rx="4.1667" ry="4.1667" style="stroke:#666666;stroke-width:2.0833333333333335;" width="367.7083" x="608.8542" y="133.9417"/><text fill="#222222" font-family="Verdana" font-size="12.5" font-weight="bold" lengthAdjust="spacing" textLength="328.125" x="625.5208" y="161.0921">Flujo: Actualizar Progreso de un Libro (Fase II)</text><polygon fill="#2196F3" points="403.125,226.825,413.5417,230.9916,403.125,235.1583,407.2917,230.9916" style="stroke:#2196F3;stroke-width:1.0416666666666667;"/><line style="stroke:#2196F3;stroke-width:3.125;" x1="54.1667" x2="409.375" y1="230.9916" y2="230.9916"/><text fill="#222222" font-family="Verdana" font-size="12.5" lengthAdjust="spacing" textLength="222.9167" x="71.875" y="215.8671">1. Clic en "Actualizar" (Libro ID=5)</text><polygon fill="#2196F3" points="800,277.4333,810.4167,281.5999,800,285.7666,804.1667,281.5999" style="stroke:#2196F3;stroke-width:1.0416666666666667;"/><line style="stroke:#2196F3;stroke-width:3.125;" x1="415.625" x2="806.25" y1="281.5999" y2="281.5999"/><text fill="#222222" font-family="Verdana" font-size="12.5" lengthAdjust="spacing" textLength="195.8333" x="433.3333" y="266.4754">2. GET /actualizar_progreso/5</text><polygon fill="#2196F3" points="1132.2917,343.2332,1142.7083,347.3999,1132.2917,351.5666,1136.4583,347.3999" style="stroke:#2196F3;stroke-width:1.0416666666666667;"/><line style="stroke:#2196F3;stroke-width:3.125;" x1="812.5" x2="1138.5417" y1="347.3999" y2="347.3999"/><text fill="#222222" font-family="Verdana" font-size="12.5" lengthAdjust="spacing" textLength="183.3333" x="830.2083" y="317.0837">3. (C) Pide datos del Libro 5</text><text fill="#222222" font-family="Verdana" font-size="12.5" lengthAdjust="spacing" textLength="118.75" x="830.2083" y="332.2754">y lista de G&#233;neros</text><polygon fill="#2196F3" points="1466.6667,409.0332,1477.0833,413.1999,1466.6667,417.3665,1470.8333,413.1999" style="stroke:#2196F3;stroke-width:1.0416666666666667;"/><line style="stroke:#2196F3;stroke-width:3.125;" x1="1144.7917" x2="1472.9167" y1="413.1999" y2="413.1999"/><text fill="#222222" font-family="Verdana" font-size="12.5" lengthAdjust="spacing" textLength="261.4583" x="1162.5" y="382.8837">4. (M) SELECT * FROM libro WHERE id=5</text><text fill="#222222" font-family="Verdana" font-size="12.5" lengthAdjust="spacing" textLength="153.125" x="1162.5" y="398.0754">SELECT * FROM genero</text><polygon fill="#2196F3" points="1156.25,459.6415,1145.8333,463.8082,1156.25,467.9749,1152.0833,463.8082" style="stroke:#2196F3;stroke-width:1.0416666666666667;"/><line style="stroke:#2196F3;stroke-width:3.125;stroke-dasharray:2.0,2.0;" x1="1150" x2="1478.125" y1="463.8082" y2="463.8082"/><text fill="#222222" font-family="Verdana" font-size="12.5" lengthAdjust="spacing" textLength="135.4167" x="1172.9167" y="448.6837">5. (M) Retorna datos</text><polygon fill="#2196F3" points="823.9583,510.2498,813.5417,514.4165,823.9583,518.5832,819.7917,514.4165" style="stroke:#2196F3;stroke-width:1.0416666666666667;"/><line style="stroke:#2196F3;stroke-width:3.125;stroke-dasharray:2.0,2.0;" x1="817.7083" x2="1143.75" y1="514.4165" y2="514.4165"/><text fill="#222222" font-family="Verdana" font-size="12.5" lengthAdjust="spacing" textLength="254.1667" x="840.625" y="499.292">6. (C) Retorna objeto 'libro' y 'generos'</text><polygon fill="#2196F3" points="427.0833,576.0498,416.6667,580.2165,427.0833,584.3831,422.9167,580.2165" style="stroke:#2196F3;stroke-width:1.0416666666666667;"/><line style="stroke:#2196F3;stroke-width:3.125;" x1="420.8333" x2="811.4583" y1="580.2165" y2="580.2165"/><text fill="#222222" font-family="Verdana" font-size="12.5" lengthAdjust="spacing" textLength="351.0417" x="443.75" y="549.9003">7. (V) render_template('actualizar_progreso.html', ...)</text><text fill="#222222" font-family="Verdana" font-size="12.5" lengthAdjust="spacing" textLength="120.8333" x="443.75" y="565.092">con datos del libro</text><polygon fill="#2196F3" points="65.625,626.6581,55.2083,630.8248,65.625,634.9915,61.4583,630.8248" style="stroke:#2196F3;stroke-width:1.0416666666666667;"/><line style="stroke:#2196F3;stroke-width:3.125;stroke-dasharray:2.0,2.0;" x1="59.375" x2="414.5833" y1="630.8248" y2="630.8248"/><text fill="#222222" font-family="Verdana" font-size="12.5" lengthAdjust="spacing" textLength="216.6667" x="82.2917" y="615.7003">8. Muestra formulario para editar</text><text fill="#FFFFFF" font-family="Verdana" font-size="12.5" lengthAdjust="spacing" textLength="184.375" x="674.4792" y="676.7253">Usuario rellena el formulario</text><polygon fill="#2196F3" points="403.125,757.6497,413.5417,761.8164,403.125,765.9831,407.2917,761.8164" style="stroke:#2196F3;stroke-width:1.0416666666666667;"/><line style="stroke:#2196F3;stroke-width:3.125;" x1="54.1667" x2="409.375" y1="761.8164" y2="761.8164"/><text fill="#222222" font-family="Verdana" font-size="12.5" lengthAdjust="spacing" textLength="217.7083" x="71.875" y="731.5002">9. Cambia p&#225;g. a 50, G&#233;nero a 3,</text><text fill="#222222" font-family="Verdana" font-size="12.5" lengthAdjust="spacing" textLength="116.6667" x="71.875" y="746.6919">y env&#237;a formulario</text><polygon fill="#2196F3" points="800,823.4497,810.4167,827.6164,800,831.783,804.1667,827.6164" style="stroke:#2196F3;stroke-width:1.0416666666666667;"/><line style="stroke:#2196F3;stroke-width:3.125;" x1="415.625" x2="806.25" y1="827.6164" y2="827.6164"/><text fill="#222222" font-family="Verdana" font-size="12.5" lengthAdjust="spacing" textLength="213.5417" x="433.3333" y="797.3002">10. POST /actualizar_progreso/5</text><text fill="#222222" font-family="Verdana" font-size="12.5" lengthAdjust="spacing" textLength="221.875" x="433.3333" y="812.4919">(pagina_actual=50, genero_id=3)</text><polygon fill="#2196F3" points="1132.2917,889.2497,1142.7083,893.4163,1132.2917,897.583,1136.4583,893.4163" style="stroke:#2196F3;stroke-width:1.0416666666666667;"/><line style="stroke:#2196F3;stroke-width:3.125;" x1="812.5" x2="1138.5417" y1="893.4163" y2="893.4163"/><text fill="#222222" font-family="Verdana" font-size="12.5" lengthAdjust="spacing" textLength="193.75" x="830.2083" y="863.1002">11. (C) Pide actualizar Libro 5</text><text fill="#222222" font-family="Verdana" font-size="12.5" lengthAdjust="spacing" textLength="286.4583" x="830.2083" y="878.2918">(libro.pagina_actual=50, libro.genero_id=3)</text><polygon fill="#2196F3" points="823.9583,955.0496,813.5417,959.2163,823.9583,963.383,819.7917,959.2163" style="stroke:#2196F3;stroke-width:1.0416666666666667;"/><line style="stroke:#2196F3;stroke-width:3.125;" x1="817.7083" x2="1143.75" y1="959.2163" y2="959.2163"/><text fill="#222222" font-family="Verdana" font-size="12.5" lengthAdjust="spacing" textLength="258.3333" x="840.625" y="928.9001">12. (C) L&#243;gica de fecha: Si p&#225;g == total</text><text fill="#222222" font-family="Verdana" font-size="12.5" lengthAdjust="spacing" textLength="244.7917" x="848.9583" y="944.0918">-&gt; libro.fecha_leido = datetime.now()</text><polygon fill="#2196F3" points="1132.2917,1005.658,1142.7083,1009.8246,1132.2917,1013.9913,1136.4583,1009.8246" style="stroke:#2196F3;stroke-width:1.0416666666666667;"/><line style="stroke:#2196F3;stroke-width:3.125;" x1="812.5" x2="1138.5417" y1="1009.8246" y2="1009.8246"/><text fill="#222222" font-family="Verdana" font-size="12.5" lengthAdjust="spacing" textLength="211.4583" x="830.2083" y="994.7001">13. (C) Ordena guardar cambios</text><polygon fill="#2196F3" points="1466.6667,1071.4579,1477.0833,1075.6246,1466.6667,1079.7913,1470.8333,1075.6246" style="stroke:#2196F3;stroke-width:1.0416666666666667;"/><line style="stroke:#2196F3;stroke-width:3.125;" x1="1144.7917" x2="1472.9167" y1="1075.6246" y2="1075.6246"/><text fill="#222222" font-family="Verdana" font-size="12.5" lengthAdjust="spacing" textLength="288.5417" x="1162.5" y="1045.3084">14. (M) UPDATE libro SET pagina_actual=50,</text><text fill="#222222" font-family="Verdana" font-size="12.5" lengthAdjust="spacing" textLength="275" x="1162.5" y="1060.5001">genero_id=3, fecha_leido=... WHERE id=5</text><polygon fill="#2196F3" points="1156.25,1122.0662,1145.8333,1126.2329,1156.25,1130.3996,1152.0833,1126.2329" style="stroke:#2196F3;stroke-width:1.0416666666666667;"/><line style="stroke:#2196F3;stroke-width:3.125;stroke-dasharray:2.0,2.0;" x1="1150" x2="1478.125" y1="1126.2329" y2="1126.2329"/><text fill="#222222" font-family="Verdana" font-size="12.5" lengthAdjust="spacing" textLength="171.875" x="1172.9167" y="1111.1084">15. (M) Confirma (Commit)</text><polygon fill="#2196F3" points="823.9583,1172.6746,813.5417,1176.8412,823.9583,1181.0079,819.7917,1176.8412" style="stroke:#2196F3;stroke-width:1.0416666666666667;"/><line style="stroke:#2196F3;stroke-width:3.125;stroke-dasharray:2.0,2.0;" x1="817.7083" x2="1143.75" y1="1176.8412" y2="1176.8412"/><text fill="#222222" font-family="Verdana" font-size="12.5" lengthAdjust="spacing" textLength="67.7083" x="840.625" y="1161.7167">16. (C) OK</text><polygon fill="#2196F3" points="427.0833,1223.2829,416.6667,1227.4495,427.0833,1231.6162,422.9167,1227.4495" style="stroke:#2196F3;stroke-width:1.0416666666666667;"/><line style="stroke:#2196F3;stroke-width:3.125;" x1="420.8333" x2="811.4583" y1="1227.4495" y2="1227.4495"/><text fill="#222222" font-family="Verdana" font-size="12.5" lengthAdjust="spacing" textLength="182.2917" x="443.75" y="1212.325">17. (V) redirect('/biblioteca')</text><polygon fill="#2196F3" points="65.625,1273.8912,55.2083,1278.0579,65.625,1282.2245,61.4583,1278.0579" style="stroke:#2196F3;stroke-width:1.0416666666666667;"/><line style="stroke:#2196F3;stroke-width:3.125;" x1="59.375" x2="414.5833" y1="1278.0579" y2="1278.0579"/><text fill="#222222" font-family="Verdana" font-size="12.5" lengthAdjust="spacing" textLength="315.625" x="82.2917" y="1262.9333">18. Recarga la biblioteca con datos actualizados</text><!--SRC=[TLHDRvj04BtpAwQ-09L3GbFtmnAL4jj9evhQjPFcOiaQmyRPQDb5opgL-szwxA6d_WJ_iSu2CRXfBmZODs_Up7lmmjopZ466XccE3YP6QRWfDgYv0YpebcadHsrumdEK1ZgVyP6jCINOBLjrB8RU7486IXgjH0doCC-3VEkNoC4XBbOf4mgy-PVncKX8I0sBdHGDhh1Wq3ctrvJ148qgm8kt1AvGvqF7YIAu49i7rOUpn6nGyE-eOQhLMhD2sRADX35VQMfoOOckhdo88iUnOy7H1oiT-X06C10y0IQXq_1qmAjAhuPHptSib2e6X7yLmENe6evnZrtcTS_ZdZEmi9XWfm5u0n-cd7IafNmQjvRJMyWj25uOj2elTpybqwfmObjxFgJYrrGS-p0VZKU3QtW95xD9J0MszlRZQ3O2daP4SdY-PfR68OAZMaElefanybLY9SDsgITvKqbyEbQh1xe3j-pZmXRSYh5mgwcgTRsbegy-Q2PJffU6PRcW-7ZkFzOHt9jCk5q8Wi1Vo4J9rYBA9jLQYRfqf0_l0eWth30QuKxfR2FA859g45ZA3Mh78QvzGZKJWf5mecl12V6tnU_9OinM727V_LW7WD0xwJxjdPvEkzOG9XztlzgTsww79m5C9_F_-RwGNevhBd5P7KUsGRM-9NbrwZV12CDMCXgo9XfUkPlWEL_r_e2roamfy5L5EzxzNlEa3DOTI-wn3tDUZatH1wCCYeK4MrInbPYbO3nL45b_cE4P2wJwvX5x8xgEyqIdTkDhCY0bpOdTwa5ompgwDzFXsVMepkoSlfTduonaQv8kj8H4rkGcv-r4XtMawITpntM694fb6JT-AzPXdUl9ftPkmtrmKwvPOZptUCLNWYl34dJtNtYTn92YEAC3lKOG20qIcXZllKjLyGS0]--></g></svg>